<?xml version="1.0" standalone="no"?>
<!DOCTYPE svg PUBLIC "-//W3C//DTD SVG 20010904//EN"
 "http://www.w3.org/TR/2001/REC-SVG-20010904/DTD/svg10.dtd">
<svg version="1.0" xmlns="http://www.w3.org/2000/svg"
 width="16.000000pt" height="16.000000pt" viewBox="0 0 16.000000 16.000000"
 preserveAspectRatio="xMidYMid meet">
<metadata>
Created by potrace 1.11, written by Peter Selinger 2001-2013
</metadata>
<g transform="translate(0.000000,16.000000) scale(0.001220,-0.001220)"
fill="#000000" stroke="none">
<path d="M7 11897 c410 -691 6548 -10917 6552 -10917 6 1 6542 10899 6549
10920 2 7 -2400 10 -6553 10 -5492 0 -6555 -2 -6548 -13z m5993 -2182 l0
-1165 108 0 107 1 595 1162 596 1162 282 3 c155 1 282 -1 282 -4 0 -4 -98
-194 -217 -423 -119 -229 -421 -807 -670 -1286 -369 -707 -452 -874 -445 -890
5 -11 346 -643 756 -1404 692 -1283 747 -1387 736 -1410 -11 -24 -223 -394
-257 -450 -16 -25 -3 -48 -229 374 -29 55 -363 674 -742 1375 l-688 1275 -107
3 -107 3 -2 -2063 -3 -2062 -237 412 -238 412 0 3070 0 3070 240 0 240 0 0
-1165z m-1000 910 l0 -245 -450 0 -450 0 -2 -1696 -3 -1695 -237 411 -238 411
0 1285 0 1284 -461 0 c-253 0 -458 -3 -456 -7 2 -5 72 -126 156 -270 83 -144
151 -265 151 -268 0 -3 -122 -4 -272 -3 l-271 3 -289 500 c-159 275 -294 508
-299 518 -9 16 68 17 1556 17 l1565 0 0 -245z m6248 187 c-18 -33 -152 -266
-298 -520 l-265 -462 -278 0 c-153 0 -276 3 -274 8 120 203 307 534 307 541 0
8 -232 11 -760 11 l-760 0 0 -370 0 -370 250 0 250 0 0 -260 0 -260 -260 0
-260 0 0 -697 c0 -428 4 -693 9 -687 5 5 129 212 274 459 l265 450 276 3 c152
1 276 -1 276 -4 0 -4 -223 -393 -496 -866 l-496 -858 -284 0 -284 0 0 1970 0
1970 1421 0 1420 0 -33 -58z"/>
</g>
</svg>
